<svg xmlns="http://www.w3.org/2000/svg" viewBox="0 0 64 64" fill="none">
  <!-- Sock body - front-facing tube sock -->
  <path d="M18 14 L18 44 Q18 56 32 56 Q46 56 46 44 L46 14 Z" fill="#E91E63"/>
  <!-- Cuff band -->
  <rect x="16" y="8" width="32" height="10" rx="5" fill="#F48FB1"/>
  <!-- Cuff highlight stripe -->
  <rect x="16" y="8" width="32" height="4" rx="2" fill="#FCE4EC"/>
  <!-- Toe seam accent -->
  <path d="M22 46 Q32 51 42 46" stroke="#F48FB1" stroke-width="1.8" fill="none" opacity="0.5"/>
  <!-- Eyes - white -->
  <circle cx="27" cy="28" r="4.5" fill="white"/>
  <circle cx="37" cy="28" r="4.5" fill="white"/>
  <!-- Eyes - pupils -->
  <circle cx="28.2" cy="29" r="2.5" fill="#1a1a2e"/>
  <circle cx="38.2" cy="29" r="2.5" fill="#1a1a2e"/>
  <!-- Eye shine -->
  <circle cx="29.5" cy="27.2" r="1.1" fill="white"/>
  <circle cx="39.5" cy="27.2" r="1.1" fill="white"/>
  <!-- Blush cheeks -->
  <ellipse cx="21.5" cy="34" rx="3.2" ry="2" fill="#F48FB1" opacity="0.55"/>
  <ellipse cx="42.5" cy="34" rx="3.2" ry="2" fill="#F48FB1" opacity="0.55"/>
  <!-- Smile -->
  <path d="M29 36 Q32 40.5 35 36" stroke="#1a1a2e" stroke-width="1.6" stroke-linecap="round"/>
</svg>
