<?xml version="1.0" standalone="no"?>
<!DOCTYPE svg PUBLIC "-//W3C//DTD SVG 20010904//EN"
 "http://www.w3.org/TR/2001/REC-SVG-20010904/DTD/svg10.dtd">
<svg version="1.0" xmlns="http://www.w3.org/2000/svg"
 width="866.000000pt" height="650.000000pt" viewBox="0 0 866.000000 650.000000"
 preserveAspectRatio="xMidYMid meet">

<g transform="translate(0.000000,650.000000) scale(0.100000,-0.100000)"
fill="#000000" stroke="none">
<path d="M2280 4065 l0 -205 60 0 60 0 0 205 0 205 -60 0 -60 0 0 -205z"/>
<path d="M2490 4065 l0 -205 60 0 60 0 0 205 0 205 -60 0 -60 0 0 -205z"/>
<path d="M4695 3831 c-71 -32 -125 -113 -125 -187 0 -40 29 -105 70 -156 22
-28 40 -53 40 -57 0 -3 -23 -19 -51 -36 -71 -42 -143 -123 -159 -179 -33 -117
10 -217 114 -271 50 -25 70 -30 135 -30 64 0 86 5 143 32 37 17 90 53 119 80
l51 47 72 -77 c63 -68 76 -77 107 -77 20 0 39 3 42 7 4 3 -34 48 -83 99 -50
51 -90 98 -90 103 0 6 13 33 30 59 29 47 90 185 90 203 0 5 -18 9 -39 9 -34 0
-40 -3 -46 -27 -9 -36 -75 -172 -87 -179 -11 -7 -53 31 -149 138 l-70 77 32
16 c50 26 120 96 140 140 35 77 18 187 -38 237 -54 49 -174 63 -248 29z m144
-51 c141 -40 122 -219 -32 -296 l-49 -25 -24 22 c-35 33 -81 109 -89 146 -11
53 25 119 77 143 49 22 69 24 117 10z m24 -534 l117 -124 -54 -49 c-67 -61
-115 -85 -184 -91 -115 -10 -192 52 -200 159 -4 49 0 65 22 102 29 51 128 123
172 126 6 1 63 -55 127 -123z"/>
<path d="M4051 3623 c-149 -167 -161 -193 -86 -193 l45 0 0 -156 c0 -187 10
-234 61 -285 68 -68 206 -88 324 -46 l40 14 3 71 c2 40 2 72 0 72 -2 0 -21 -7
-43 -15 -63 -22 -119 -19 -152 9 l-28 24 -3 156 -3 156 115 0 116 0 0 70 0 70
-115 0 -115 0 0 100 c0 80 -3 100 -14 100 -8 0 -73 -66 -145 -147z"/>
<path d="M6942 3730 c-18 -24 -22 -43 -22 -105 l0 -75 -85 0 -85 0 0 -30 0
-30 85 0 85 0 0 -241 c0 -225 1 -244 20 -274 35 -56 124 -76 213 -46 32 11 37
17 37 43 0 27 -3 30 -22 23 -13 -4 -46 -9 -74 -12 -44 -4 -54 -2 -80 20 l-29
25 -3 231 -3 230 88 3 c88 3 88 3 91 31 l3 27 -90 0 -91 0 0 105 c0 58 -4 105
-8 105 -5 0 -18 -13 -30 -30z"/>
<path d="M2900 3579 c-62 -7 -117 -23 -172 -51 l-38 -18 0 -80 0 -80 58 39
c67 46 134 66 198 58 53 -6 81 -28 90 -72 l6 -30 -104 -34 c-146 -47 -224 -86
-245 -121 -9 -17 -20 -30 -23 -30 -3 0 -11 15 -18 33 -20 56 -80 104 -187 150
-104 45 -127 65 -109 94 25 40 120 35 221 -12 l53 -24 0 70 0 70 -37 16 c-24
11 -76 18 -144 21 -93 4 -112 1 -157 -18 -99 -43 -147 -127 -123 -217 17 -61
70 -106 181 -153 54 -23 106 -50 115 -60 45 -50 -27 -89 -132 -70 -33 5 -77
17 -97 25 -59 25 -61 23 -58 -55 l4 -70 51 -16 c72 -22 205 -29 264 -15 60 15
118 53 142 92 l18 30 13 -31 c41 -100 176 -127 314 -62 l64 30 12 -24 c27 -50
130 -56 230 -13 45 20 55 21 74 9 81 -52 166 -53 266 -3 l58 29 25 -31 c23
-29 28 -30 98 -30 55 1 88 7 127 24 l52 23 0 54 c0 30 -2 54 -4 54 -2 0 -19
-6 -38 -14 -61 -26 -62 -20 -68 203 -6 227 -8 234 -91 281 -38 21 -59 25 -154
28 -113 4 -175 -7 -255 -46 l-35 -17 -3 -83 -3 -84 39 32 c78 62 198 88 261
55 31 -15 41 -33 41 -69 0 -20 -14 -27 -112 -60 -192 -63 -248 -105 -263 -199
-8 -47 -21 -60 -46 -46 -15 8 -18 31 -21 201 -3 220 -11 243 -88 287 -47 26
-160 40 -250 30z m140 -413 c0 -68 -2 -76 -26 -95 -33 -26 -89 -37 -119 -23
-51 23 -39 108 19 140 36 19 108 51 119 51 4 1 7 -32 7 -73z m640 -6 l0 -80
-40 -20 c-76 -39 -130 -18 -130 50 0 45 24 69 100 104 30 14 58 25 63 25 4 1
7 -35 7 -79z"/>
<path d="M5413 3549 c-45 -13 -100 -71 -114 -119 -16 -52 1 -113 42 -151 16
-15 70 -44 120 -65 114 -47 149 -78 149 -131 0 -40 -21 -73 -57 -92 -38 -19
-133 -13 -198 14 -33 14 -61 25 -62 25 -2 0 -3 -15 -3 -34 0 -33 3 -36 58 -57
39 -15 79 -22 127 -22 80 -1 116 14 163 67 56 64 54 141 -4 206 -31 34 -57 48
-196 107 -74 31 -101 92 -64 147 41 63 140 73 235 23 l51 -26 0 35 c0 32 -4
37 -47 56 -54 24 -151 33 -200 17z"/>
<path d="M5890 3554 c-8 -3 -41 -17 -72 -31 -53 -25 -58 -29 -58 -59 l0 -33
68 36 c61 32 73 35 136 31 62 -3 71 -7 97 -36 26 -28 29 -40 29 -96 l0 -64
-82 -12 c-186 -27 -278 -99 -278 -217 0 -139 151 -203 295 -124 33 17 61 28
63 24 11 -33 30 -58 45 -61 10 -2 43 11 73 29 45 28 54 38 54 61 l0 29 -37
-26 c-21 -14 -43 -25 -50 -25 -9 0 -12 61 -15 239 -3 225 -4 241 -24 268 -35
46 -79 66 -158 69 -39 2 -78 1 -86 -2z m200 -413 l0 -98 -37 -26 c-78 -54
-157 -63 -213 -24 -120 80 12 246 198 247 l52 0 0 -99z"/>
<path d="M6386 3536 c-69 -29 -73 -33 -77 -66 -4 -33 7 -33 59 -3 57 34 163
43 210 19 42 -22 52 -43 55 -118 l2 -63 -78 -13 c-190 -31 -287 -105 -287
-218 0 -80 61 -146 147 -160 47 -7 129 15 174 47 36 26 47 24 51 -7 5 -41 29
-51 75 -30 55 25 83 48 88 74 5 27 -12 28 -45 2 -14 -11 -33 -20 -42 -20 -15
0 -17 22 -20 239 -3 225 -4 241 -24 268 -35 46 -79 66 -158 70 -59 3 -81 0
-130 -21z m254 -390 l0 -95 -32 -24 c-56 -42 -95 -57 -145 -57 -58 0 -110 28
-119 65 -27 109 82 202 239 204 l57 1 0 -94z"/>
<path d="M1480 3195 l0 -55 210 0 210 0 0 55 0 55 -210 0 -210 0 0 -55z"/>
<path d="M2390 2435 l0 -205 55 0 55 0 0 205 0 205 -55 0 -55 0 0 -205z"/>
</g>
</svg>
