<svg xmlns="http://www.w3.org/2000/svg" viewBox="0 0 72 70">
  <path fill="#0039a6" fill-rule="evenodd" d="m12.25,11.47c-10.47,10.48-10.47,27.46,0,37.93,10.47,10.47,27.46,10.47,37.93,0,10.47-10.47,10.47-27.45,0-37.93-10.48-10.47-27.46-10.47-37.93,0Z"/>
  <path fill="#74c6c8" fill-rule="evenodd" d="m68.84,11.81c15.75,15.75,15.75,41.28,0,57.03-15.75,15.75-41.28,15.75-57.03,0C2.32,59.35-1.45,46.3.5,33.99c.77,6.69,3.72,13.18,8.85,18.31,12.08,12.08,31.65,12.08,43.73,0,12.07-12.07,12.07-31.65,0-43.73C48.59,4.08,43.06,1.27,37.27.12c11.31-.85,22.92,3.04,31.57,11.69Z"/>
</svg>
