<svg viewBox="0 0 182 182" xmlns="http://www.w3.org/2000/svg" fill="none">
  <mask id="a" height="182" width="183" x="0" y="0" maskUnits="userSpaceOnUse">
    <path d="m91.242 181.516c50.124 0 90.758-40.633 90.758-90.7578 0-50.1244-40.634-90.7582-90.758-90.7582s-90.758 40.6338-90.758 90.7582c0 50.1248 40.634 90.7578 90.758 90.7578z" fill="#fff"/>
  </mask>
  
  <path d="m91.242 181.516c50.124 0 90.758-40.633 90.758-90.7578 0-50.1244-40.634-90.7582-90.758-90.7582s-90.758 40.6338-90.758 90.7582c0 50.1248 40.634 90.7578 90.758 90.7578z" fill="#FF44EE"/>
  
  <g fill="#1c1c1e" mask="url(#a)">
    <path d="m11.296 111.289c27.75 0 50.246-22.4959 50.246-50.246 0-27.75-22.496-50.2459-50.246-50.2459s-50.246 22.4959-50.246 50.2459c0 27.7501 22.496 50.246 50.246 50.246z"/>
    <path d="m121.981 41.5308c16.974 0 30.734-13.76 30.734-30.7338 0-16.97386-13.76-30.7339-30.734-30.7339s-30.734 13.76004-30.734 30.7339c0 16.9738 13.76 30.7338 30.734 30.7338z"/>
    <path d="m122.49 202.302c33.664 0 60.954-27.289 60.954-60.953 0-33.663-27.29-60.9532-60.954-60.9532-33.663 0-60.953 27.2902-60.953 60.9532 0 33.664 27.29 60.953 60.953 60.953z"/>
  </g>
</svg>
