<svg xmlns="http://www.w3.org/2000/svg" viewBox="60 20 155 110" fill="none">
  <!-- Skechers "S" logo — transparent background -->
  <path fill="#003478" d="M184.64,75.38c4.93-10.43-1.84-14.46-17.89-14.46l-26.84.02c-5.84-.01-7.07-.46-5.77-3.16l1.93-4.02c1.18-2.6,2.9-3.1,8.74-3.11h35.16c7.26-.02,10.33.9,14.25,2.35l3.49-14.23h-70.14c-13.38,0-23.77,5.82-29.08,17.05l-7.54,16.02c-5.82,11.95-1.64,15.51,13.4,15.51h30.84c5.9,0,6.87.57,5.62,3.16l-2.35,4.92c-1.23,2.67-2.75,3.11-8.61,3.12h-36.54c-7.52,0-10.5-1.34-13.55-2.68l-3.76,14.6h68.24c18.16-.03,26.65-6.33,32.02-17.57l8.38-17.52Z"/>
</svg>
